PathFileType	4	(X/Y/Z)	/Users/itak/Documents/Research/Walk-IL/dataset/trc/00235_00009.trc
DataRate	CameraRate	NumFrames	NumMarkers	Units	OrigDataRate	OrigDataStartFrame	OrigNumFrames
100.000000	100.000000	4	53	mm	100.000000	420	841
Frame#	Time	RPSI			LPSI			L3			STRN			T10			C7			CLAV			RBAK			LBAK			LSHO			LUPA			LAEL			LAOL			LWTS			LWPS			LFRA			LIFD			LHPS			LHTS			RSHO			RUPA			RAEL			RAOL			RWTS			RWPS			RFRA			RIFD			RHTS			RHPS			RBHD			LFHD			RFHD			LBHD			LHIP			RHIP			RASI			LASI			LKNE			LTHI			LANK			LTIP			LTOE			LMT1			LMT5			LHEE			RKNE			RTHI			RANK			RTIP			RTOE			RMT1			RMT5			RHEE			
		X1	Y1	Z1	X2	Y2	Z2	X3	Y3	Z3	X4	Y4	Z4	X5	Y5	Z5	X6	Y6	Z6	X7	Y7	Z7	X8	Y8	Z8	X9	Y9	Z9	X10	Y10	Z10	X11	Y11	Z11	X12	Y12	Z12	X13	Y13	Z13	X14	Y14	Z14	X15	Y15	Z15	X16	Y16	Z16	X17	Y17	Z17	X18	Y18	Z18	X19	Y19	Z19	X20	Y20	Z20	X21	Y21	Z21	X22	Y22	Z22	X23	Y23	Z23	X24	Y24	Z24	X25	Y25	Z25	X26	Y26	Z26	X27	Y27	Z27	X28	Y28	Z28	X29	Y29	Z29	X30	Y30	Z30	X31	Y31	Z31	X32	Y32	Z32	X33	Y33	Z33	X34	Y34	Z34	X35	Y35	Z35	X36	Y36	Z36	X37	Y37	Z37	X38	Y38	Z38	X39	Y39	Z39	X40	Y40	Z40	X41	Y41	Z41	X42	Y42	Z42	X43	Y43	Z43	X44	Y44	Z44	X45	Y45	Z45	X46	Y46	Z46	X47	Y47	Z47	X48	Y48	Z48	X49	Y49	Z49	X50	Y50	Z50	X51	Y51	Z51	X52	Y52	Z52	X53	Y53	Z53	

421	4.2	427.9143371582031	1021.175537109375	-528.8659057617188	402.3882446289062	1022.994995117188	-411.2845764160156	416.4737243652344	1110.020629882812	-448.0420532226562	170.0817718505859	1296.510009765625	-496.7987060546875	418.2661743164062	1238.025268554688	-447.2021179199219	353.2992248535156	1498.695678710938	-448.8013610839844	192.8735046386719	1414.180541992188	-490.0329284667969	444.9785461425781	1362.504516601562	-507.2678833007812	347.7264404296875	1458.137451171875	-337.0855102539062	247.6197662353516	1457.687744140625	-303.7903137207031	258.1888732910156	1339.049926757812	-221.2772979736328	235.2044372558594	1130.692993164062	-195.6251831054688	309.1251525878906	1107.118408203125	-233.0014801025391	106.2326736450195	928.5006713867188	-282.3407592773438	117.4542236328125	899.8593139648438	-203.7632904052734	191.2313079833984	1029.692260742188	-193.4044952392578	53.49192428588867	741.5952758789062	-296.0303955078125	80.60366821289062	819.1432495117188	-219.2987365722656	46.22640991210938	838.1954345703125	-275.5647888183594	334.8426208496094	1462.1416015625	-627.4903564453125	368.0387268066406	1400.332641601562	-691.2861938476562	396.5373840332031	1122.80126953125	-742.6203002929688	411.3918151855469	1109.134643554688	-648.9419555664062	250.9288177490234	909.94384765625	-744.3488159179688	317.0377502441406	898.0298461914062	-796.9537353515625	372.738525390625	1055.9541015625	-764.9869384765625	234.0183563232422	716.8545532226562	-755.9580688476562	213.0859832763672	791.4886474609375	-777.1238403320312	277.0057373046875	792.765380859375	-813.956298828125	314.7994384765625	1658.87548828125	-511.9325561523438	104.91162109375	1692.014038085938	-431.7619018554688	112.9152984619141	1696.32470703125	-531.4407958984375	259.6627197265625	1657.857421875	-382.8549194335938	271.8078308105469	959.5543823242188	-298.3964538574219	353.7863159179688	992.08447265625	-654.65673828125	252.4013671875	1037.884033203125	-637.2891235351562	185.9768829345703	1009.171569824219	-365.6798095703125	205.7254943847656	488.6418762207031	-435.4285888671875	216.1491851806641	625.6978149414062	-380.567138671875	325.0218505859375	31.47562789916992	-515.6441650390625	265.4124450683594	262.6785583496094	-466.0718994140625	112.4302597045898	39.40739059448242	-586.9925537109375	183.86181640625	34.7218132019043	-624.9904174804688	195.9739227294922	36.17024993896484	-509.5211791992188	388.7519836425781	39.01701736450195	-564.3080444335938	216.2038116455078	516.845458984375	-700.0376586914062	260.5723876953125	782.5123901367188	-697.4788208007812	517.1456909179688	125.3979873657227	-683.4024658203125	249.7061767578125	406.0690002441406	-695.58544921875	323.9959106445312	51.27622222900391	-712.94580078125	358.8214721679688	59.66191864013672	-653.3489990234375	435.4521484375	79.19286346435547	-742.9523315429688	550.3816528320312	146.17529296875	-608.6629028320312	
422	4.21	422.3671264648438	1021.644409179688	-531.7294921875	398.8518981933594	1023.453002929688	-413.6586608886719	412.2658996582031	1110.357299804688	-450.4586181640625	164.8308258056641	1296.663452148438	-495.419921875	413.8006896972656	1238.355346679688	-449.4855651855469	348.5833435058594	1498.964111328125	-450.0947570800781	187.4806823730469	1414.373657226562	-489.1190185546875	439.5075988769531	1362.818603515625	-509.8216857910156	344.6136169433594	1458.44091796875	-338.273193359375	244.9710693359375	1457.995727539062	-303.6221313476562	256.2970581054688	1339.388549804688	-221.2115783691406	232.7968597412109	1131.020385742188	-195.5863037109375	306.2184753417969	1107.097290039062	-233.633056640625	100.9989547729492	930.8539428710938	-282.7149658203125	112.3966445922852	901.5368041992188	-204.3976593017578	187.8020324707031	1030.44921875	-193.6716766357422	45.74011993408203	744.7514038085938	-297.3369750976562	74.44131469726562	821.4112548828125	-220.2507629394531	39.98523712158203	841.2835083007812	-276.0890502929688	327.6325988769531	1462.359008789062	-628.4812622070312	359.9883422851562	1400.614135742188	-692.7337036132812	388.1338500976562	1123.138793945312	-744.6024169921875	404.3676147460938	1109.552368164062	-651.3004150390625	242.3854827880859	910.3193359375	-744.4981689453125	307.8853759765625	898.31787109375	-797.9064331054688	364.1513366699219	1056.316528320312	-766.701416015625	225.2288665771484	717.27294921875	-755.8947143554688	204.1886138916016	791.9290161132812	-776.8026733398438	267.5532531738281	793.139892578125	-814.4625854492188	309.1474609375	1659.097290039062	-512.6192626953125	100.2206726074219	1692.148193359375	-430.0250549316406	107.0057830810547	1696.34814453125	-529.8080444335938	255.4973297119141	1658.157592773438	-382.9868469238281	270.6091003417969	959.6283569335938	-298.3396301269531	346.1656799316406	992.5723266601562	-656.0606689453125	244.9882354736328	1038.12939453125	-636.7635498046875	183.1777954101562	1009.096740722656	-364.0066223144531	205.6492919921875	488.318359375	-434.2854309082031	215.8937225341797	625.5264282226562	-379.784423828125	324.98974609375	31.50684547424316	-515.6670532226562	265.451904296875	262.6376037597656	-465.6319274902344	112.4376754760742	39.38844299316406	-586.9816284179688	183.8194427490234	34.76376724243164	-624.9290161132812	196.0094909667969	36.12802505493164	-509.4232177734375	388.7562255859375	39.14086151123047	-564.2280883789062	204.4688262939453	517.8413696289062	-698.0586547851562	250.9017486572266	783.21142578125	-697.4338989257812	494.0677795410156	117.8506698608398	-697.384521484375	235.6670684814453	406.4291076660156	-696.0433959960938	297.4977722167969	51.3277587890625	-721.7857666015625	334.7081298828125	56.98269271850586	-663.300537109375	408.7215576171875	76.18629455566406	-755.1476440429688	530.7020263671875	135.538330078125	-623.43359375	
423	4.22	416.7884216308594	1022.130615234375	-534.5708618164062	395.3063659667969	1023.914123535156	-416.0391845703125	408.0584411621094	1110.708129882812	-452.8692626953125	159.6097869873047	1296.794189453125	-493.9625244140625	409.3133239746094	1238.69921875	-451.7626647949219	343.8438415527344	1499.229370117188	-451.3632507324219	182.0867767333984	1414.549072265625	-488.126953125	433.9896545410156	1363.143920898438	-512.3790893554688	341.5116577148438	1458.743774414062	-339.4622497558594	242.3564147949219	1458.27685546875	-303.4258422851562	254.5172271728516	1339.692626953125	-221.1509094238281	230.5993499755859	1131.30810546875	-195.57568359375	303.5148620605469	1107.069213867188	-234.3352966308594	96.04962158203125	933.136962890625	-282.937744140625	107.6834716796875	903.1557006835938	-204.8987579345703	184.6469421386719	1031.160400390625	-193.8973999023438	38.29528427124023	747.8565063476562	-298.4040832519531	68.65283966064453	823.6237182617188	-221.0055847167969	34.04815292358398	844.2977905273438	-276.3853454589844	320.3403930664062	1462.57275390625	-629.4129028320312	351.8479309082031	1400.899536132812	-694.1278076171875	379.637939453125	1123.483642578125	-746.521240234375	397.3050231933594	1109.996337890625	-653.6072998046875	233.8271179199219	910.6429443359375	-744.4474487304688	298.6594543457031	898.5802612304688	-798.7009887695312	355.47509765625	1056.658325195312	-768.3187866210938	216.5700073242188	717.6188354492188	-755.5609130859375	195.4078826904297	792.2833862304688	-776.1958618164062	258.1037902832031	793.4639282226562	-814.7535400390625	303.4994201660156	1659.28662109375	-513.2540893554688	95.60283660888672	1692.304321289062	-428.1850280761719	101.1462554931641	1696.40380859375	-528.0687255859375	251.3743133544922	1658.430053710938	-383.0614624023438	269.4130249023438	959.6829223632812	-298.3444519042969	338.484130859375	993.0909423828125	-657.4114990234375	237.5604705810547	1038.3623046875	-636.160400390625	180.4112701416016	1009.007385253906	-362.3229370117188	205.5296478271484	488.0086669921875	-433.1990661621094	215.6068572998047	625.3656616210938	-379.0475769042969	325.0074462890625	31.52572059631348	-515.6864624023438	265.4635314941406	262.6114807128906	-465.2372741699219	112.4297943115234	39.37443923950195	-586.9694213867188	183.7693939208984	34.80708312988281	-624.8655395507812	196.0265808105469	36.09698867797852	-509.3361511230469	388.7244567871094	39.20834732055664	-564.2258911132812	192.9005889892578	518.7916870117188	-695.7617797851562	241.2461700439453	783.8828735351562	-697.1512451171875	469.9088439941406	110.4473419189453	-710.642333984375	221.5517120361328	406.736572265625	-696.0415649414062	270.307373046875	51.63216018676758	-728.8817749023438	309.9562377929688	54.64913940429688	-671.7891235351562	380.97216796875	73.29991149902344	-766.0165405273438	510.0634765625	125.1994400024414	-637.8565063476562	
424	4.23	411.1819763183594	1022.630249023438	-537.3800659179688	391.7474670410156	1024.376342773438	-418.4186401367188	403.8383178710938	1111.072265625	-455.2694091796875	154.427001953125	1296.897583007812	-492.4275817871094	404.8015441894531	1239.053344726562	-454.030029296875	339.0819091796875	1499.49072265625	-452.6065673828125	176.7094573974609	1414.70556640625	-487.0543212890625	428.4244689941406	1363.479858398438	-514.9397583007812	338.416015625	1459.044677734375	-340.6539611816406	239.7734832763672	1458.531982421875	-303.2071228027344	252.8423004150391	1339.963989257812	-221.1004333496094	228.5950622558594	1131.553344726562	-195.6018371582031	301.0054016113281	1107.031616210938	-235.1051025390625	91.40187835693359	935.3289794921875	-283.0120544433594	103.3257751464844	904.7011108398438	-205.2662811279297	181.7589721679688	1031.821655273438	-194.0883636474609	31.21472549438477	750.8773193359375	-299.217041015625	63.24508666992188	825.7545776367188	-221.5638732910156	28.44375610351562	847.2066650390625	-276.4564208984375	312.9695739746094	1462.782470703125	-630.2839965820312	343.61474609375	1401.184204101562	-695.464599609375	371.0446166992188	1123.829956054688	-748.3662109375	390.1838989257812	1110.450805664062	-655.8452758789062	225.2643890380859	910.9099731445312	-744.2033081054688	289.37744140625	898.81591796875	-799.3372802734375	346.6980590820312	1056.972290039062	-769.8297119140625	208.0435180664062	717.884521484375	-754.96728515625	186.7613983154297	792.5382080078125	-775.3148193359375	248.6676483154297	793.730224609375	-814.8282470703125	297.8525390625	1659.449340820312	-513.8391723632812	91.04966735839844	1692.474365234375	-426.2433166503906	95.32912445068359	1696.48486328125	-526.2244262695312	247.2879028320312	1658.674560546875	-383.0785522460938	268.1929016113281	959.7196044921875	-298.4099426269531	330.7453002929688	993.6293334960938	-658.7029418945312	230.1387481689453	1038.583984375	-635.4789428710938	177.6804351806641	1008.908569335938	-360.6422119140625	205.3521118164062	487.7125549316406	-432.1721801757812	215.2753448486328	625.2136840820312	-378.349609375	325.0526428222656	31.5391788482666	-515.703369140625	265.4432067871094	262.595703125	-464.8894653320312	112.4056854248047	39.36579513549805	-586.9567260742188	183.7112884521484	34.85531997680664	-624.79638671875	196.0248107910156	36.07417678833008	-509.2601623535156	388.6619873046875	39.23682022094727	-564.2813720703125	181.49462890625	519.7176513671875	-693.2024536132812	231.61767578125	784.53271484375	-696.6392211914062	444.7407531738281	103.3034439086914	-723.0347900390625	207.3733673095703	407.0242919921875	-695.5963134765625	242.6092681884766	52.18038940429688	-734.0653686523438	284.7377319335938	52.68722534179688	-678.6469116210938	352.3248596191406	70.57542419433594	-775.3827514648438	488.5000305175781	115.300537109375	-651.7980346679688	
